<?xml version="1.0" encoding="UTF-8"?>
<svg width="1600" height="1100" viewBox="0 0 1600 1100" fill="none" xmlns="http://www.w3.org/2000/svg">
  <rect width="1600" height="1100" fill="#0F172A"/>
  <rect width="1600" height="1100" fill="url(#bg)"/>
  <circle cx="1300" cy="180" r="240" fill="#7fa89d" fill-opacity="0.28"/>
  <circle cx="260" cy="940" r="280" fill="#d6b08b" fill-opacity="0.22"/>
  <rect x="84" y="88" width="1432" height="924" rx="40" fill="rgba(255,255,255,0.08)" stroke="rgba(255,255,255,0.16)"/>
  <rect x="150" y="168" width="550" height="370" rx="28" fill="#F8FAFC"/>
  <rect x="184" y="204" width="180" height="22" rx="11" fill="#b67a3c" fill-opacity="0.22"/>
  <rect x="184" y="254" width="410" height="46" rx="16" fill="#0F172A" fill-opacity="0.92"/>
  <rect x="184" y="322" width="360" height="20" rx="10" fill="#94A3B8"/>
  <rect x="184" y="356" width="330" height="20" rx="10" fill="#CBD5E1"/>
  <rect x="184" y="420" width="190" height="54" rx="27" fill="#1f5c57"/>
  <rect x="390" y="420" width="190" height="54" rx="27" fill="#E2E8F0"/>
  <rect x="780" y="176" width="620" height="320" rx="34" fill="#f0e5d5"/>
  <rect x="824" y="220" width="250" height="168" rx="24" fill="#FFFFFF"/>
  <rect x="1100" y="220" width="256" height="110" rx="24" fill="#1f5c57" fill-opacity="0.18"/>
  <rect x="1100" y="350" width="256" height="110" rx="24" fill="#FFFFFF"/>
  <rect x="150" y="598" width="392" height="278" rx="30" fill="#FFFFFF"/>
  <rect x="574" y="598" width="392" height="278" rx="30" fill="#e8ddcb"/>
  <rect x="998" y="598" width="418" height="278" rx="30" fill="#FFFFFF"/>
  <text x="184" y="744" fill="#0F172A" font-family="Arial, Helvetica, sans-serif" font-size="38" font-weight="700">Home picks</text>
  <text x="608" y="744" fill="#1f5c57" font-family="Arial, Helvetica, sans-serif" font-size="38" font-weight="700">Pet essentials</text>
  <text x="1034" y="744" fill="#0F172A" font-family="Arial, Helvetica, sans-serif" font-size="38" font-weight="700">Quick comparisons</text>
  <text x="184" y="792" fill="#64748B" font-family="Arial, Helvetica, sans-serif" font-size="24">Editorial-style review cards</text>
  <text x="608" y="792" fill="#153f3d" font-family="Arial, Helvetica, sans-serif" font-size="24">Richer article galleries</text>
  <text x="1034" y="792" fill="#64748B" font-family="Arial, Helvetica, sans-serif" font-size="24">Simple, fast buyer reading flow</text>
  <defs>
    <linearGradient id="bg" x1="120" y1="80" x2="1496" y2="1028" gradientUnits="userSpaceOnUse">
      <stop stop-color="#0F172A"/>
      <stop offset="0.55" stop-color="#1f5c57"/>
      <stop offset="1" stop-color="#7fa89d"/>
    </linearGradient>
  </defs>
</svg>