<?xml version="1.0" encoding="UTF-8"?>
<svg width="1200" height="900" viewBox="0 0 1200 900" fill="none" xmlns="http://www.w3.org/2000/svg">
  <rect width="1200" height="900" fill="#f6efe3"/>
  <rect x="56" y="56" width="1088" height="788" rx="34" fill="#FFFFFF" stroke="#d8c7af"/>
  <rect x="106" y="108" width="530" height="400" rx="28" fill="#153f3d" fill-opacity="0.14"/>
  <rect x="670" y="108" width="432" height="214" rx="26" fill="#93c5fd" fill-opacity="0.32"/>
  <rect x="670" y="344" width="432" height="164" rx="26" fill="#153f3d" fill-opacity="0.1"/>
  <rect x="106" y="544" width="996" height="236" rx="28" fill="#f6efe3"/>
  <circle cx="282" cy="270" r="118" fill="#93c5fd" fill-opacity="0.82"/>
  <rect x="248" y="224" width="234" height="168" rx="22" fill="#FFFFFF" fill-opacity="0.86"/>
  <rect x="730" y="164" width="168" height="22" rx="11" fill="#153f3d" fill-opacity="0.2"/>
  <rect x="730" y="206" width="280" height="28" rx="14" fill="#153f3d" fill-opacity="0.88"/>
  <rect x="730" y="252" width="240" height="18" rx="9" fill="#64748B" fill-opacity="0.62"/>
  <rect x="730" y="282" width="206" height="18" rx="9" fill="#94A3B8" fill-opacity="0.62"/>
  <text x="112" y="618" fill="#153f3d" font-family="Arial, Helvetica, sans-serif" font-size="24" font-weight="700">ShareBest visual 2</text>
  <text x="112" y="664" fill="#0F172A" font-family="Arial, Helvetica, sans-serif" font-size="38" font-weight="700">Cordless Handheld Vacuums for Quic...</text>
  <text x="112" y="718" fill="#475569" font-family="Arial, Helvetica, sans-serif" font-size="24">A grab-and-go vacuum that works best for short daily cleaning jobs.</text>
  <text x="112" y="760" fill="#64748B" font-family="Arial, Helvetica, sans-serif" font-size="20">Editorial scene concept for richer product storytelling.</text>
</svg>