<svg width="1600" height="900" viewBox="0 0 1600 900" fill="none" xmlns="http://www.w3.org/2000/svg">
  <rect width="1600" height="900" rx="36" fill="url(#bg)"/>
  <rect x="86" y="84" width="1428" height="732" rx="36" fill="white" fill-opacity="0.94"/>
  <rect x="138" y="142" width="210" height="42" rx="21" fill="#EEF2FF"/>
  <text x="164" y="169" fill="#4F46E5" font-family="Arial, sans-serif" font-size="24" font-weight="700">ShareBest Review</text>
  <text x="138" y="284" fill="#111827" font-family="Arial, sans-serif" font-size="68" font-weight="800">Best Desk Lamps</text>
  <text x="138" y="360" fill="#111827" font-family="Arial, sans-serif" font-size="68" font-weight="800">for Home Office Use</text>
  <text x="138" y="430" fill="#4B5563" font-family="Arial, sans-serif" font-size="30">Reduce glare, improve focus, and make long workdays easier.</text>
  <rect x="138" y="512" width="286" height="112" rx="24" fill="#111827"/>
  <text x="170" y="560" fill="white" font-family="Arial, sans-serif" font-size="24" font-weight="700">Lighting Guide</text>
  <text x="170" y="602" fill="#D1D5DB" font-family="Arial, sans-serif" font-size="22">Brightness, tone, and desk fit</text>
  <rect x="1028" y="196" width="292" height="56" rx="28" fill="#FDE68A"/>
  <text x="1084" y="231" fill="#92400E" font-family="Arial, sans-serif" font-size="28" font-weight="700">Home Office</text>
  <rect x="1086" y="346" width="26" height="208" rx="13" fill="#1F2937"/>
  <rect x="1100" y="332" width="180" height="24" rx="12" transform="rotate(-28 1100 332)" fill="#374151"/>
  <circle cx="1264" cy="246" r="58" fill="#FDE68A"/>
  <circle cx="1264" cy="246" r="34" fill="#FEF3C7"/>
  <rect x="1030" y="560" width="322" height="24" rx="12" fill="#CBD5E1"/>
  <rect x="1130" y="584" width="122" height="78" rx="18" fill="#E5E7EB"/>
  <rect x="1040" y="606" width="82" height="56" rx="14" fill="#DBEAFE"/>
  <circle cx="1186" cy="620" r="10" fill="#94A3B8"/>
  <defs>
    <linearGradient id="bg" x1="72" y1="54" x2="1512" y2="858" gradientUnits="userSpaceOnUse">
      <stop stop-color="#E0EAFF"/>
      <stop offset="1" stop-color="#FCE7F3"/>
    </linearGradient>
  </defs>
</svg>
