<svg width="1600" height="900" viewBox="0 0 1600 900" fill="none" xmlns="http://www.w3.org/2000/svg">
  <rect width="1600" height="900" rx="36" fill="url(#bg)"/>
  <rect x="86" y="84" width="1428" height="732" rx="36" fill="white" fill-opacity="0.94"/>
  <rect x="138" y="142" width="210" height="42" rx="21" fill="#ECFDF5"/>
  <text x="164" y="169" fill="#059669" font-family="Arial, sans-serif" font-size="24" font-weight="700">ShareBest Review</text>
  <text x="138" y="284" fill="#111827" font-family="Arial, sans-serif" font-size="68" font-weight="800">Best Storage Bins</text>
  <text x="138" y="360" fill="#111827" font-family="Arial, sans-serif" font-size="68" font-weight="800">for Small Spaces</text>
  <text x="138" y="430" fill="#4B5563" font-family="Arial, sans-serif" font-size="30">Organize shelves, closets, and under-bed storage with less clutter.</text>
  <rect x="138" y="512" width="314" height="112" rx="24" fill="#111827"/>
  <text x="170" y="560" fill="white" font-family="Arial, sans-serif" font-size="24" font-weight="700">Storage Guide</text>
  <text x="170" y="602" fill="#D1D5DB" font-family="Arial, sans-serif" font-size="22">Fit, visibility, and stackability</text>
  <rect x="1060" y="190" width="260" height="56" rx="28" fill="#D1FAE5"/>
  <text x="1102" y="225" fill="#047857" font-family="Arial, sans-serif" font-size="28" font-weight="700">Organization</text>
  <rect x="1028" y="360" width="118" height="152" rx="20" fill="#d8c7af"/>
  <rect x="1168" y="320" width="126" height="192" rx="20" fill="#E5E7EB"/>
  <rect x="1082" y="292" width="98" height="52" rx="16" fill="#93C5FD"/>
  <rect x="1218" y="252" width="96" height="52" rx="16" fill="#D1D5DB"/>
  <rect x="1010" y="542" width="334" height="28" rx="14" fill="#94A3B8"/>
  <rect x="1048" y="596" width="278" height="70" rx="22" fill="#F3F4F6"/>
  <rect x="1086" y="614" width="108" height="18" rx="9" fill="#86EFAC"/>
  <rect x="1214" y="614" width="78" height="18" rx="9" fill="#C4B5FD"/>
  <defs>
    <linearGradient id="bg" x1="64" y1="66" x2="1516" y2="850" gradientUnits="userSpaceOnUse">
      <stop stop-color="#DCFCE7"/>
      <stop offset="1" stop-color="#e8ddcb"/>
    </linearGradient>
  </defs>
</svg>
